<svg width="216" height="68" viewBox="0 0 216 68" fill="none" xmlns="http://www.w3.org/2000/svg">
<g clip-path="url(#clip0_2020_49)">
<path d="M41.9453 49.2188C41.9453 48.776 41.8281 48.3789 41.5938 48.0273C41.3594 47.6758 40.9167 47.3568 40.2656 47.0703C39.6276 46.7708 38.6901 46.4909 37.4531 46.2305C36.3594 45.9961 35.3503 45.7031 34.4258 45.3516C33.5013 45 32.707 44.5768 32.043 44.082C31.3789 43.5742 30.8581 42.9818 30.4805 42.3047C30.1159 41.6146 29.9336 40.8203 29.9336 39.9219C29.9336 39.0495 30.1224 38.2292 30.5 37.4609C30.8776 36.6797 31.4245 35.9961 32.1406 35.4102C32.8568 34.8112 33.7292 34.3424 34.7578 34.0039C35.7865 33.6523 36.9453 33.4766 38.2344 33.4766C40.0312 33.4766 41.5742 33.7695 42.8633 34.3555C44.1654 34.9414 45.1615 35.7487 45.8516 36.7773C46.5417 37.793 46.8867 38.9388 46.8867 40.2148H41.7305C41.7305 39.6549 41.6003 39.1471 41.3398 38.6914C41.0924 38.2357 40.7083 37.8711 40.1875 37.5977C39.6667 37.3112 39.0091 37.168 38.2148 37.168C37.4987 37.168 36.8932 37.2852 36.3984 37.5195C35.9167 37.7539 35.5521 38.0599 35.3047 38.4375C35.0573 38.8151 34.9336 39.2318 34.9336 39.6875C34.9336 40.026 34.9987 40.332 35.1289 40.6055C35.2721 40.8659 35.5 41.1068 35.8125 41.3281C36.125 41.5495 36.5482 41.7513 37.082 41.9336C37.6289 42.1159 38.2995 42.2917 39.0938 42.4609C40.6693 42.7734 42.043 43.1901 43.2148 43.7109C44.3997 44.2188 45.3242 44.8958 45.9883 45.7422C46.6523 46.5885 46.9844 47.6693 46.9844 48.9844C46.9844 49.9219 46.7826 50.7812 46.3789 51.5625C45.9753 52.3307 45.3893 53.0013 44.6211 53.5742C43.8529 54.1471 42.9349 54.5964 41.8672 54.9219C40.7995 55.2344 39.5951 55.3906 38.2539 55.3906C36.3138 55.3906 34.6732 55.0456 33.332 54.3555C31.9909 53.6523 30.9753 52.7669 30.2852 51.6992C29.5951 50.6185 29.25 49.4987 29.25 48.3398H34.1914C34.2305 49.1602 34.4518 49.8177 34.8555 50.3125C35.2591 50.8073 35.7669 51.1654 36.3789 51.3867C37.0039 51.5951 37.6615 51.6992 38.3516 51.6992C39.1328 51.6992 39.7904 51.5951 40.3242 51.3867C40.8581 51.1654 41.2617 50.8724 41.5352 50.5078C41.8086 50.1302 41.9453 49.7005 41.9453 49.2188ZM63.6023 55.3906C62.0008 55.3906 60.562 55.1302 59.2859 54.6094C58.0099 54.0885 56.9227 53.3659 56.0242 52.4414C55.1388 51.5039 54.4552 50.4167 53.9734 49.1797C53.5047 47.9297 53.2703 46.5885 53.2703 45.1562V44.375C53.2703 42.7474 53.5047 41.2695 53.9734 39.9414C54.4422 38.6003 55.1063 37.4479 55.9656 36.4844C56.825 35.5208 57.8536 34.7786 59.0516 34.2578C60.2495 33.737 61.5711 33.4766 63.0164 33.4766C64.5138 33.4766 65.8354 33.7305 66.9813 34.2383C68.1271 34.7331 69.0841 35.4362 69.8523 36.3477C70.6206 37.2591 71.2 38.3529 71.5906 39.6289C71.9813 40.8919 72.1766 42.2917 72.1766 43.8281V45.9961H55.6141V42.4414H67.0984V42.0508C67.0724 41.2305 66.9161 40.4818 66.6297 39.8047C66.3432 39.1146 65.9005 38.5677 65.3016 38.1641C64.7026 37.7474 63.9279 37.5391 62.9773 37.5391C62.2091 37.5391 61.5385 37.7083 60.9656 38.0469C60.4057 38.3724 59.937 38.8411 59.5594 39.4531C59.1948 40.0521 58.9214 40.7682 58.7391 41.6016C58.5568 42.4349 58.4656 43.3594 58.4656 44.375V45.1562C58.4656 46.0417 58.5828 46.862 58.8172 47.6172C59.0646 48.3724 59.4227 49.0299 59.8914 49.5898C60.3732 50.1367 60.9461 50.5664 61.6102 50.8789C62.2872 51.1784 63.0555 51.3281 63.9148 51.3281C64.9956 51.3281 65.9721 51.1198 66.8445 50.7031C67.7299 50.2734 68.4982 49.6419 69.1492 48.8086L71.7469 51.5039C71.3042 52.1549 70.7052 52.7799 69.95 53.3789C69.2078 53.9779 68.3094 54.4661 67.2547 54.8438C66.2 55.2083 64.9826 55.3906 63.6023 55.3906ZM90.4742 50.5078V40.7617C90.4742 40.0456 90.3505 39.4271 90.1031 38.9062C89.8557 38.3854 89.4781 37.9818 88.9703 37.6953C88.4625 37.4089 87.818 37.2656 87.0367 37.2656C86.3466 37.2656 85.7411 37.3828 85.2203 37.6172C84.7125 37.8516 84.3219 38.1836 84.0484 38.6133C83.775 39.0299 83.6383 39.5117 83.6383 40.0586H78.4625C78.4625 39.1862 78.6708 38.3594 79.0875 37.5781C79.5042 36.7839 80.0966 36.0807 80.8648 35.4688C81.6461 34.8438 82.5771 34.3555 83.6578 34.0039C84.7516 33.6523 85.9755 33.4766 87.3297 33.4766C88.9313 33.4766 90.357 33.75 91.607 34.2969C92.8701 34.8307 93.8596 35.638 94.5758 36.7188C95.3049 37.7995 95.6695 39.1602 95.6695 40.8008V50.0195C95.6695 51.0742 95.7346 51.9792 95.8648 52.7344C96.0081 53.4766 96.2164 54.1211 96.4898 54.668V55H91.2359C90.9885 54.4661 90.7997 53.7891 90.6695 52.9688C90.5393 52.1354 90.4742 51.3151 90.4742 50.5078ZM91.1969 42.1289L91.2359 45.1953H87.9742C87.1669 45.1953 86.4573 45.2799 85.8453 45.4492C85.2333 45.6055 84.732 45.8398 84.3414 46.1523C83.9508 46.4518 83.6578 46.8164 83.4625 47.2461C83.2672 47.6628 83.1695 48.138 83.1695 48.6719C83.1695 49.1927 83.2867 49.6615 83.5211 50.0781C83.7685 50.4948 84.1201 50.8268 84.5758 51.0742C85.0445 51.3086 85.5914 51.4258 86.2164 51.4258C87.1279 51.4258 87.9221 51.2435 88.5992 50.8789C89.2763 50.5013 89.8036 50.0456 90.1813 49.5117C90.5589 48.9779 90.7607 48.4701 90.7867 47.9883L92.2711 50.2148C92.0888 50.7487 91.8154 51.3151 91.4508 51.9141C91.0862 52.513 90.6174 53.0729 90.0445 53.5938C89.4716 54.1146 88.7815 54.5443 87.9742 54.8828C87.1669 55.2214 86.2294 55.3906 85.1617 55.3906C83.7945 55.3906 82.5706 55.1172 81.4898 54.5703C80.4091 54.0234 79.5563 53.2747 78.9313 52.3242C78.3063 51.3737 77.9938 50.293 77.9938 49.082C77.9938 47.9622 78.2021 46.9727 78.6188 46.1133C79.0354 45.2539 79.6539 44.5312 80.4742 43.9453C81.2945 43.3464 82.3102 42.8971 83.5211 42.5977C84.7451 42.2852 86.1448 42.1289 87.7203 42.1289H91.1969ZM108.674 38.1836V55H103.518V33.8672H108.401L108.674 38.1836ZM115.1 33.7305L115.022 38.5352C114.735 38.4831 114.41 38.444 114.045 38.418C113.694 38.3919 113.362 38.3789 113.049 38.3789C112.255 38.3789 111.558 38.4896 110.959 38.7109C110.36 38.9193 109.859 39.2253 109.455 39.6289C109.065 40.0326 108.765 40.5273 108.557 41.1133C108.349 41.6862 108.232 42.3372 108.205 43.0664L107.092 42.9297C107.092 41.5885 107.229 40.3451 107.502 39.1992C107.776 38.0534 108.173 37.0508 108.694 36.1914C109.215 35.332 109.866 34.668 110.647 34.1992C111.441 33.7174 112.353 33.4766 113.381 33.4766C113.668 33.4766 113.974 33.5026 114.299 33.5547C114.638 33.5938 114.905 33.6523 115.1 33.7305ZM129.413 51.3281C130.142 51.3281 130.793 51.1849 131.366 50.8984C131.939 50.612 132.395 50.2083 132.734 49.6875C133.085 49.1667 133.274 48.5612 133.3 47.8711H138.163C138.137 49.3034 137.734 50.5859 136.952 51.7188C136.171 52.8516 135.129 53.75 133.827 54.4141C132.538 55.0651 131.093 55.3906 129.491 55.3906C127.864 55.3906 126.445 55.1172 125.234 54.5703C124.023 54.0234 123.014 53.2617 122.206 52.2852C121.412 51.3086 120.813 50.1758 120.409 48.8867C120.019 47.5977 119.823 46.2174 119.823 44.7461V44.1211C119.823 42.6497 120.019 41.2695 120.409 39.9805C120.813 38.6914 121.412 37.5586 122.206 36.582C123.014 35.6055 124.023 34.8438 125.234 34.2969C126.445 33.75 127.857 33.4766 129.472 33.4766C131.178 33.4766 132.675 33.8086 133.964 34.4727C135.266 35.1367 136.282 36.0742 137.011 37.2852C137.753 38.4961 138.137 39.9219 138.163 41.5625H133.3C133.274 40.8073 133.105 40.1302 132.792 39.5312C132.48 38.9323 132.037 38.4505 131.464 38.0859C130.891 37.7214 130.195 37.5391 129.374 37.5391C128.502 37.5391 127.773 37.7214 127.187 38.0859C126.614 38.4505 126.165 38.9518 125.839 39.5898C125.527 40.2148 125.305 40.918 125.175 41.6992C125.058 42.4674 124.999 43.2747 124.999 44.1211V44.7461C124.999 45.6055 125.058 46.4258 125.175 47.207C125.305 47.9883 125.527 48.6914 125.839 49.3164C126.165 49.9284 126.614 50.4167 127.187 50.7812C127.773 51.1458 128.515 51.3281 129.413 51.3281ZM149.859 25V55H144.684V25H149.859ZM149.039 43.6719H147.516C147.516 42.2005 147.711 40.8464 148.102 39.6094C148.492 38.3724 149.046 37.2982 149.762 36.3867C150.478 35.4622 151.331 34.7461 152.32 34.2383C153.323 33.7305 154.43 33.4766 155.641 33.4766C156.682 33.4766 157.626 33.6263 158.473 33.9258C159.332 34.2122 160.068 34.6745 160.68 35.3125C161.292 35.9505 161.76 36.7839 162.086 37.8125C162.424 38.8281 162.594 40.0651 162.594 41.5234V55H157.398V41.4844C157.398 40.5078 157.255 39.7396 156.969 39.1797C156.682 38.6068 156.272 38.1966 155.738 37.9492C155.217 37.7018 154.573 37.5781 153.805 37.5781C152.971 37.5781 152.255 37.7409 151.656 38.0664C151.057 38.3789 150.562 38.8151 150.172 39.375C149.794 39.9349 149.508 40.5794 149.312 41.3086C149.13 42.0378 149.039 42.8255 149.039 43.6719ZM179.837 55.3906C178.235 55.3906 176.796 55.1302 175.52 54.6094C174.244 54.0885 173.157 53.3659 172.259 52.4414C171.373 51.5039 170.69 50.4167 170.208 49.1797C169.739 47.9297 169.505 46.5885 169.505 45.1562V44.375C169.505 42.7474 169.739 41.2695 170.208 39.9414C170.677 38.6003 171.341 37.4479 172.2 36.4844C173.059 35.5208 174.088 34.7786 175.286 34.2578C176.484 33.737 177.805 33.4766 179.251 33.4766C180.748 33.4766 182.07 33.7305 183.216 34.2383C184.361 34.7331 185.318 35.4362 186.087 36.3477C186.855 37.2591 187.434 38.3529 187.825 39.6289C188.216 40.8919 188.411 42.2917 188.411 43.8281V45.9961H171.848V42.4414H183.333V42.0508C183.307 41.2305 183.151 40.4818 182.864 39.8047C182.578 39.1146 182.135 38.5677 181.536 38.1641C180.937 37.7474 180.162 37.5391 179.212 37.5391C178.443 37.5391 177.773 37.7083 177.2 38.0469C176.64 38.3724 176.171 38.8411 175.794 39.4531C175.429 40.0521 175.156 40.7682 174.973 41.6016C174.791 42.4349 174.7 43.3594 174.7 44.375V45.1562C174.7 46.0417 174.817 46.862 175.052 47.6172C175.299 48.3724 175.657 49.0299 176.126 49.5898C176.608 50.1367 177.18 50.5664 177.845 50.8789C178.522 51.1784 179.29 51.3281 180.149 51.3281C181.23 51.3281 182.207 51.1198 183.079 50.7031C183.964 50.2734 184.733 49.6419 185.384 48.8086L187.981 51.5039C187.539 52.1549 186.94 52.7799 186.184 53.3789C185.442 53.9779 184.544 54.4661 183.489 54.8438C182.434 55.2083 181.217 55.3906 179.837 55.3906ZM200.224 38.1836V55H195.068V33.8672H199.951L200.224 38.1836ZM206.65 33.7305L206.572 38.5352C206.285 38.4831 205.96 38.444 205.595 38.418C205.244 38.3919 204.912 38.3789 204.599 38.3789C203.805 38.3789 203.108 38.4896 202.509 38.7109C201.91 38.9193 201.409 39.2253 201.005 39.6289C200.615 40.0326 200.315 40.5273 200.107 41.1133C199.899 41.6862 199.782 42.3372 199.755 43.0664L198.642 42.9297C198.642 41.5885 198.779 40.3451 199.052 39.1992C199.326 38.0534 199.723 37.0508 200.244 36.1914C200.765 35.332 201.416 34.668 202.197 34.1992C202.991 33.7174 203.903 33.4766 204.931 33.4766C205.218 33.4766 205.524 33.5026 205.849 33.5547C206.188 33.5938 206.455 33.6523 206.65 33.7305Z" fill="white"/>
<path d="M43.0469 19.082V25.8438C42.7812 26.1641 42.3711 26.5117 41.8164 26.8867C41.2617 27.2539 40.5469 27.5703 39.6719 27.8359C38.7969 28.1016 37.7383 28.2344 36.4961 28.2344C35.3945 28.2344 34.3906 28.0547 33.4844 27.6953C32.5781 27.3281 31.7969 26.793 31.1406 26.0898C30.4922 25.3867 29.9922 24.5273 29.6406 23.5117C29.2891 22.4883 29.1133 21.3203 29.1133 20.0078V18.9414C29.1133 17.6289 29.2812 16.4609 29.6172 15.4375C29.9609 14.4141 30.4492 13.5508 31.082 12.8477C31.7148 12.1445 32.4688 11.6094 33.3438 11.2422C34.2188 10.875 35.1914 10.6914 36.2617 10.6914C37.7461 10.6914 38.9648 10.9336 39.918 11.418C40.8711 11.8945 41.5977 12.5586 42.0977 13.4102C42.6055 14.2539 42.918 15.2227 43.0352 16.3164H39.625C39.5391 15.7383 39.375 15.2344 39.1328 14.8047C38.8906 14.375 38.543 14.0391 38.0898 13.7969C37.6445 13.5547 37.0664 13.4336 36.3555 13.4336C35.7695 13.4336 35.2461 13.5547 34.7852 13.7969C34.332 14.0312 33.9492 14.3789 33.6367 14.8398C33.3242 15.3008 33.0859 15.8711 32.9219 16.5508C32.7578 17.2305 32.6758 18.0195 32.6758 18.918V20.0078C32.6758 20.8984 32.7617 21.6875 32.9336 22.375C33.1055 23.0547 33.3594 23.6289 33.6953 24.0977C34.0391 24.5586 34.4609 24.9062 34.9609 25.1406C35.4609 25.375 36.043 25.4922 36.707 25.4922C37.2617 25.4922 37.7227 25.4453 38.0898 25.3516C38.4648 25.2578 38.7656 25.1445 38.9922 25.0117C39.2266 24.8711 39.4062 24.7383 39.5312 24.6133V21.5898H36.3203V19.082H43.0469ZM54.4356 25.1406V19.4922C54.4356 19.0859 54.3692 18.7383 54.2364 18.4492C54.1036 18.1523 53.8966 17.9219 53.6153 17.7578C53.3419 17.5938 52.9864 17.5117 52.5489 17.5117C52.1739 17.5117 51.8497 17.5781 51.5763 17.7109C51.3028 17.8359 51.0919 18.0195 50.9434 18.2617C50.795 18.4961 50.7208 18.7734 50.7208 19.0938H47.3458C47.3458 18.5547 47.4708 18.043 47.7208 17.5586C47.9708 17.0742 48.3341 16.6484 48.8106 16.2812C49.2872 15.9062 49.8536 15.6133 50.5098 15.4023C51.1739 15.1914 51.9161 15.0859 52.7364 15.0859C53.7208 15.0859 54.5958 15.25 55.3614 15.5781C56.127 15.9062 56.7286 16.3984 57.1661 17.0547C57.6114 17.7109 57.8341 18.5312 57.8341 19.5156V24.9414C57.8341 25.6367 57.877 26.207 57.963 26.6523C58.0489 27.0898 58.1739 27.4727 58.338 27.8008V28H54.9278C54.7638 27.6562 54.6388 27.2266 54.5528 26.7109C54.4747 26.1875 54.4356 25.6641 54.4356 25.1406ZM54.8809 20.2773L54.9044 22.1875H53.0177C52.5723 22.1875 52.1856 22.2383 51.8575 22.3398C51.5294 22.4414 51.2598 22.5859 51.0489 22.7734C50.838 22.9531 50.6817 23.1641 50.5802 23.4062C50.4864 23.6484 50.4395 23.9141 50.4395 24.2031C50.4395 24.4922 50.5059 24.7539 50.6388 24.9883C50.7716 25.2148 50.963 25.3945 51.213 25.5273C51.463 25.6523 51.7559 25.7148 52.0919 25.7148C52.5997 25.7148 53.0411 25.6133 53.4161 25.4102C53.7911 25.207 54.0802 24.957 54.2833 24.6602C54.4942 24.3633 54.6036 24.082 54.6114 23.8164L55.502 25.2461C55.377 25.5664 55.2052 25.8984 54.9864 26.2422C54.7755 26.5859 54.5059 26.9102 54.1778 27.2148C53.8497 27.5117 53.4552 27.7578 52.9942 27.9531C52.5333 28.1406 51.9864 28.2344 51.3536 28.2344C50.5489 28.2344 49.8184 28.0742 49.1622 27.7539C48.5138 27.4258 47.9981 26.9766 47.6153 26.4062C47.2403 25.8281 47.0528 25.1719 47.0528 24.4375C47.0528 23.7734 47.1778 23.1836 47.4278 22.668C47.6778 22.1523 48.045 21.7188 48.5294 21.3672C49.0216 21.0078 49.6348 20.7383 50.3692 20.5586C51.1036 20.3711 51.9552 20.2773 52.9239 20.2773H54.8809ZM65.7306 17.9453V28H62.3439V15.3203H65.5197L65.7306 17.9453ZM65.2619 21.2148H64.3244C64.3244 20.332 64.4298 19.5195 64.6408 18.7773C64.8595 18.0273 65.1759 17.3789 65.59 16.832C66.0119 16.2773 66.5314 15.8477 67.1486 15.543C67.7658 15.2383 68.4806 15.0859 69.2931 15.0859C69.8556 15.0859 70.3713 15.1719 70.84 15.3438C71.3088 15.5078 71.7111 15.7695 72.047 16.1289C72.3908 16.4805 72.6564 16.9414 72.8439 17.5117C73.0314 18.0742 73.1252 18.75 73.1252 19.5391V28H69.7502V19.9141C69.7502 19.3359 69.672 18.8906 69.5158 18.5781C69.3595 18.2656 69.1369 18.0469 68.8478 17.9219C68.5666 17.7969 68.2267 17.7344 67.8283 17.7344C67.3908 17.7344 67.008 17.8242 66.6798 18.0039C66.3595 18.1836 66.0939 18.4336 65.883 18.7539C65.672 19.0664 65.5158 19.4336 65.4142 19.8555C65.3127 20.2773 65.2619 20.7305 65.2619 21.2148ZM72.8088 20.8281L71.6017 20.9805C71.6017 20.1523 71.7033 19.3828 71.9064 18.6719C72.1173 17.9609 72.4259 17.3359 72.8322 16.7969C73.2463 16.2578 73.758 15.8398 74.3673 15.543C74.9767 15.2383 75.6798 15.0859 76.4767 15.0859C77.0861 15.0859 77.6408 15.1758 78.1408 15.3555C78.6408 15.5273 79.0666 15.8047 79.4181 16.1875C79.7775 16.5625 80.0509 17.0547 80.2384 17.6641C80.4338 18.2734 80.5314 19.0195 80.5314 19.9023V28H77.1447V19.9023C77.1447 19.3164 77.0666 18.8711 76.9103 18.5664C76.7619 18.2539 76.5431 18.0391 76.2541 17.9219C75.9728 17.7969 75.6369 17.7344 75.2463 17.7344C74.84 17.7344 74.4845 17.8164 74.1798 17.9805C73.8752 18.1367 73.6213 18.3555 73.4181 18.6367C73.215 18.918 73.0627 19.2461 72.9611 19.6211C72.8595 19.9883 72.8088 20.3906 72.8088 20.8281ZM90.9006 28.2344C89.9162 28.2344 89.0334 28.0781 88.2522 27.7656C87.4709 27.4453 86.8069 27.0039 86.26 26.4414C85.7209 25.8789 85.3069 25.2266 85.0178 24.4844C84.7287 23.7344 84.5842 22.9375 84.5842 22.0938V21.625C84.5842 20.6641 84.7209 19.7852 84.9944 18.9883C85.2678 18.1914 85.6584 17.5 86.1662 16.9141C86.6819 16.3281 87.3069 15.8789 88.0412 15.5664C88.7756 15.2461 89.6037 15.0859 90.5256 15.0859C91.4241 15.0859 92.2209 15.2344 92.9162 15.5312C93.6116 15.8281 94.1936 16.25 94.6623 16.7969C95.1389 17.3438 95.4983 18 95.7405 18.7656C95.9827 19.5234 96.1037 20.3672 96.1037 21.2969V22.7031H86.0256V20.4531H92.7873V20.1953C92.7873 19.7266 92.7014 19.3086 92.5295 18.9414C92.3655 18.5664 92.1155 18.2695 91.7795 18.0508C91.4436 17.832 91.0139 17.7227 90.4905 17.7227C90.0452 17.7227 89.6623 17.8203 89.342 18.0156C89.0217 18.2109 88.76 18.4844 88.5569 18.8359C88.3616 19.1875 88.2131 19.6016 88.1116 20.0781C88.0178 20.5469 87.9709 21.0625 87.9709 21.625V22.0938C87.9709 22.6016 88.0412 23.0703 88.1819 23.5C88.3303 23.9297 88.5373 24.3008 88.803 24.6133C89.0764 24.9258 89.4045 25.168 89.7873 25.3398C90.178 25.5117 90.6194 25.5977 91.1116 25.5977C91.7209 25.5977 92.2873 25.4805 92.8108 25.2461C93.342 25.0039 93.7991 24.6406 94.1819 24.1562L95.8225 25.9375C95.5569 26.3203 95.1936 26.6875 94.7327 27.0391C94.2795 27.3906 93.7327 27.6797 93.092 27.9062C92.4514 28.125 91.7209 28.2344 90.9006 28.2344Z" fill="white"/>
<path d="M15.3805 58.3704L12.2567 52.1229L13.5433 25.1122L15.3366 25.4939L17.2167 25.0936L18.5042 52.1229L15.3805 58.3704ZM7.64051 19.9843L7.64051 22.1931L15.3714 23.8374L23.1023 22.1931L23.1023 19.9843L16.9747 19.9843L16.6396 12.9604C17.1325 12.5818 17.4515 11.9883 17.4516 11.3188C17.4516 10.1751 16.5246 9.24801 15.3809 9.24801C14.2372 9.24801 13.3101 10.1751 13.3101 11.3188C13.3101 11.988 13.6289 12.5813 14.1215 12.9599L13.7864 19.9842L7.64051 19.9843Z" fill="white"/>
</g>
<defs>
<clipPath id="clip0_2020_49">
<rect width="216" height="68" fill="white"/>
</clipPath>
</defs>
</svg>
