<svg width="216" height="42" viewBox="0 0 216 42" fill="none" xmlns="http://www.w3.org/2000/svg">
<path d="M28.6364 1.90918V3.81827H32.4545V5.72736H34.3636V7.63645H36.2727V9.54554H38.1818V13.3637H40.0909V28.6365H38.1818V32.4546H36.2727V34.3637H34.3636V36.2728H32.4545V38.1819H28.6364V40.091H13.3636V38.1819H9.54545V36.2728H7.63636V34.3637H5.72727V32.4546H3.81818V28.6365H1.90909V13.3637H3.81818V9.54554H5.72727V7.63645H7.63636V5.72736H9.54545V3.81827H13.3636V1.90918H28.6364ZM26.7273 5.72736H15.2727V7.63645H11.4545V9.54554H9.54545V11.4546H7.63636V15.2728H5.72727V26.7274H7.63636V30.5455H9.54545V32.4546H11.4545V34.3637H15.2727V36.2728H26.7273V34.3637H30.5454V32.4546H32.4545V30.5455H34.3636V26.7274H36.2727V15.2728H34.3636V11.4546H32.4545V9.54554H30.5454V7.63645H26.7273V5.72736ZM17.1818 11.4546H26.7273V15.2728H19.0909V26.7274H22.9091V22.9092H21V19.091H26.7273V28.6365H24.8182V30.5455H17.1818V28.6365H15.2727V13.3637H17.1818V11.4546Z" fill="#32C112"/>
<path d="M53.1562 26.1406V20.4922C53.1562 20.0859 53.0898 19.7383 52.957 19.4492C52.8242 19.1523 52.6172 18.9219 52.3359 18.7578C52.0625 18.5938 51.707 18.5117 51.2695 18.5117C50.8945 18.5117 50.5703 18.5781 50.2969 18.7109C50.0234 18.8359 49.8125 19.0195 49.6641 19.2617C49.5156 19.4961 49.4414 19.7734 49.4414 20.0938H46.0664C46.0664 19.5547 46.1914 19.043 46.4414 18.5586C46.6914 18.0742 47.0547 17.6484 47.5312 17.2812C48.0078 16.9062 48.5742 16.6133 49.2305 16.4023C49.8945 16.1914 50.6367 16.0859 51.457 16.0859C52.4414 16.0859 53.3164 16.25 54.082 16.5781C54.8477 16.9062 55.4492 17.3984 55.8867 18.0547C56.332 18.7109 56.5547 19.5312 56.5547 20.5156V25.9414C56.5547 26.6367 56.5977 27.207 56.6836 27.6523C56.7695 28.0898 56.8945 28.4727 57.0586 28.8008V29H53.6484C53.4844 28.6562 53.3594 28.2266 53.2734 27.7109C53.1953 27.1875 53.1562 26.6641 53.1562 26.1406ZM53.6016 21.2773L53.625 23.1875H51.7383C51.293 23.1875 50.9062 23.2383 50.5781 23.3398C50.25 23.4414 49.9805 23.5859 49.7695 23.7734C49.5586 23.9531 49.4023 24.1641 49.3008 24.4062C49.207 24.6484 49.1602 24.9141 49.1602 25.2031C49.1602 25.4922 49.2266 25.7539 49.3594 25.9883C49.4922 26.2148 49.6836 26.3945 49.9336 26.5273C50.1836 26.6523 50.4766 26.7148 50.8125 26.7148C51.3203 26.7148 51.7617 26.6133 52.1367 26.4102C52.5117 26.207 52.8008 25.957 53.0039 25.6602C53.2148 25.3633 53.3242 25.082 53.332 24.8164L54.2227 26.2461C54.0977 26.5664 53.9258 26.8984 53.707 27.2422C53.4961 27.5859 53.2266 27.9102 52.8984 28.2148C52.5703 28.5117 52.1758 28.7578 51.7148 28.9531C51.2539 29.1406 50.707 29.2344 50.0742 29.2344C49.2695 29.2344 48.5391 29.0742 47.8828 28.7539C47.2344 28.4258 46.7188 27.9766 46.3359 27.4062C45.9609 26.8281 45.7734 26.1719 45.7734 25.4375C45.7734 24.7734 45.8984 24.1836 46.1484 23.668C46.3984 23.1523 46.7656 22.7188 47.25 22.3672C47.7422 22.0078 48.3555 21.7383 49.0898 21.5586C49.8242 21.3711 50.6758 21.2773 51.6445 21.2773H53.6016ZM64.4513 18.9453V29H61.0645V16.3203H64.2403L64.4513 18.9453ZM63.9825 22.2148H63.045C63.045 21.332 63.1505 20.5195 63.3614 19.7773C63.5802 19.0273 63.8966 18.3789 64.3106 17.832C64.7325 17.2773 65.252 16.8477 65.8692 16.543C66.4864 16.2383 67.2013 16.0859 68.0138 16.0859C68.5763 16.0859 69.0919 16.1719 69.5606 16.3438C70.0294 16.5078 70.4317 16.7695 70.7677 17.1289C71.1114 17.4805 71.377 17.9414 71.5645 18.5117C71.752 19.0742 71.8458 19.75 71.8458 20.5391V29H68.4708V20.9141C68.4708 20.3359 68.3927 19.8906 68.2364 19.5781C68.0802 19.2656 67.8575 19.0469 67.5684 18.9219C67.2872 18.7969 66.9473 18.7344 66.5489 18.7344C66.1114 18.7344 65.7286 18.8242 65.4005 19.0039C65.0802 19.1836 64.8145 19.4336 64.6036 19.7539C64.3927 20.0664 64.2364 20.4336 64.1348 20.8555C64.0333 21.2773 63.9825 21.7305 63.9825 22.2148ZM71.5294 21.8281L70.3223 21.9805C70.3223 21.1523 70.4239 20.3828 70.627 19.6719C70.838 18.9609 71.1466 18.3359 71.5528 17.7969C71.9669 17.2578 72.4786 16.8398 73.088 16.543C73.6973 16.2383 74.4005 16.0859 75.1973 16.0859C75.8067 16.0859 76.3614 16.1758 76.8614 16.3555C77.3614 16.5273 77.7872 16.8047 78.1388 17.1875C78.4981 17.5625 78.7716 18.0547 78.9591 18.6641C79.1544 19.2734 79.252 20.0195 79.252 20.9023V29H75.8653V20.9023C75.8653 20.3164 75.7872 19.8711 75.6309 19.5664C75.4825 19.2539 75.2638 19.0391 74.9747 18.9219C74.6934 18.7969 74.3575 18.7344 73.9669 18.7344C73.5606 18.7344 73.2052 18.8164 72.9005 18.9805C72.5958 19.1367 72.3419 19.3555 72.1388 19.6367C71.9356 19.918 71.7833 20.2461 71.6817 20.6211C71.5802 20.9883 71.5294 21.3906 71.5294 21.8281ZM89.6213 29.2344C88.6369 29.2344 87.7541 29.0781 86.9728 28.7656C86.1916 28.4453 85.5275 28.0039 84.9806 27.4414C84.4416 26.8789 84.0275 26.2266 83.7384 25.4844C83.4494 24.7344 83.3048 23.9375 83.3048 23.0938V22.625C83.3048 21.6641 83.4416 20.7852 83.715 19.9883C83.9884 19.1914 84.3791 18.5 84.8869 17.9141C85.4025 17.3281 86.0275 16.8789 86.7619 16.5664C87.4963 16.2461 88.3244 16.0859 89.2463 16.0859C90.1447 16.0859 90.9416 16.2344 91.6369 16.5312C92.3322 16.8281 92.9142 17.25 93.383 17.7969C93.8595 18.3438 94.2189 19 94.4611 19.7656C94.7033 20.5234 94.8244 21.3672 94.8244 22.2969V23.7031H84.7463V21.4531H91.508V21.1953C91.508 20.7266 91.422 20.3086 91.2502 19.9414C91.0861 19.5664 90.8361 19.2695 90.5002 19.0508C90.1642 18.832 89.7345 18.7227 89.2111 18.7227C88.7658 18.7227 88.383 18.8203 88.0627 19.0156C87.7423 19.2109 87.4806 19.4844 87.2775 19.8359C87.0822 20.1875 86.9338 20.6016 86.8322 21.0781C86.7384 21.5469 86.6916 22.0625 86.6916 22.625V23.0938C86.6916 23.6016 86.7619 24.0703 86.9025 24.5C87.0509 24.9297 87.258 25.3008 87.5236 25.6133C87.797 25.9258 88.1252 26.168 88.508 26.3398C88.8986 26.5117 89.34 26.5977 89.8322 26.5977C90.4416 26.5977 91.008 26.4805 91.5314 26.2461C92.0627 26.0039 92.5197 25.6406 92.9025 25.1562L94.5431 26.9375C94.2775 27.3203 93.9142 27.6875 93.4533 28.0391C93.0002 28.3906 92.4533 28.6797 91.8127 28.9062C91.172 29.125 90.4416 29.2344 89.6213 29.2344ZM115.657 24.5352C115.657 24.2305 115.61 23.957 115.516 23.7148C115.43 23.4648 115.266 23.2383 115.024 23.0352C114.782 22.8242 114.442 22.6172 114.004 22.4141C113.567 22.2109 113 22 112.305 21.7812C111.532 21.5312 110.797 21.25 110.102 20.9375C109.414 20.625 108.805 20.2617 108.274 19.8477C107.75 19.4258 107.336 18.9375 107.032 18.3828C106.735 17.8281 106.586 17.1836 106.586 16.4492C106.586 15.7383 106.743 15.0938 107.055 14.5156C107.368 13.9297 107.805 13.4297 108.368 13.0156C108.93 12.5938 109.594 12.2695 110.36 12.043C111.133 11.8164 111.981 11.7031 112.903 11.7031C114.16 11.7031 115.258 11.9297 116.196 12.3828C117.133 12.8359 117.86 13.457 118.375 14.2461C118.899 15.0352 119.16 15.9375 119.16 16.9531H115.668C115.668 16.4531 115.563 16.0156 115.352 15.6406C115.149 15.2578 114.836 14.957 114.414 14.7383C114 14.5195 113.477 14.4102 112.844 14.4102C112.235 14.4102 111.727 14.5039 111.321 14.6914C110.914 14.8711 110.61 15.1172 110.407 15.4297C110.203 15.7344 110.102 16.0781 110.102 16.4609C110.102 16.75 110.172 17.0117 110.313 17.2461C110.461 17.4805 110.68 17.6992 110.969 17.9023C111.258 18.1055 111.614 18.2969 112.035 18.4766C112.457 18.6562 112.946 18.832 113.5 19.0039C114.43 19.2852 115.246 19.6016 115.95 19.9531C116.66 20.3047 117.254 20.6992 117.731 21.1367C118.207 21.5742 118.567 22.0703 118.809 22.625C119.051 23.1797 119.172 23.8086 119.172 24.5117C119.172 25.2539 119.028 25.918 118.739 26.5039C118.45 27.0898 118.032 27.5859 117.485 27.9922C116.938 28.3984 116.285 28.707 115.528 28.918C114.77 29.1289 113.922 29.2344 112.985 29.2344C112.141 29.2344 111.309 29.125 110.489 28.9062C109.668 28.6797 108.922 28.3398 108.25 27.8867C107.586 27.4336 107.055 26.8555 106.657 26.1523C106.258 25.4492 106.059 24.6172 106.059 23.6562H109.586C109.586 24.1875 109.668 24.6367 109.832 25.0039C109.996 25.3711 110.227 25.668 110.524 25.8945C110.828 26.1211 111.188 26.2852 111.602 26.3867C112.024 26.4883 112.485 26.5391 112.985 26.5391C113.594 26.5391 114.094 26.4531 114.485 26.2812C114.883 26.1094 115.176 25.8711 115.364 25.5664C115.559 25.2617 115.657 24.918 115.657 24.5352ZM129.108 29.2344C128.123 29.2344 127.241 29.0781 126.459 28.7656C125.678 28.4453 125.014 28.0039 124.467 27.4414C123.928 26.8789 123.514 26.2266 123.225 25.4844C122.936 24.7344 122.791 23.9375 122.791 23.0938V22.625C122.791 21.6641 122.928 20.7852 123.202 19.9883C123.475 19.1914 123.866 18.5 124.373 17.9141C124.889 17.3281 125.514 16.8789 126.248 16.5664C126.983 16.2461 127.811 16.0859 128.733 16.0859C129.631 16.0859 130.428 16.2344 131.123 16.5312C131.819 16.8281 132.401 17.25 132.87 17.7969C133.346 18.3438 133.705 19 133.948 19.7656C134.19 20.5234 134.311 21.3672 134.311 22.2969V23.7031H124.233V21.4531H130.995V21.1953C130.995 20.7266 130.909 20.3086 130.737 19.9414C130.573 19.5664 130.323 19.2695 129.987 19.0508C129.651 18.832 129.221 18.7227 128.698 18.7227C128.252 18.7227 127.87 18.8203 127.549 19.0156C127.229 19.2109 126.967 19.4844 126.764 19.8359C126.569 20.1875 126.42 20.6016 126.319 21.0781C126.225 21.5469 126.178 22.0625 126.178 22.625V23.0938C126.178 23.6016 126.248 24.0703 126.389 24.5C126.537 24.9297 126.745 25.3008 127.01 25.6133C127.284 25.9258 127.612 26.168 127.995 26.3398C128.385 26.5117 128.827 26.5977 129.319 26.5977C129.928 26.5977 130.495 26.4805 131.018 26.2461C131.549 26.0039 132.006 25.6406 132.389 25.1562L134.03 26.9375C133.764 27.3203 133.401 27.6875 132.94 28.0391C132.487 28.3906 131.94 28.6797 131.299 28.9062C130.659 29.125 129.928 29.2344 129.108 29.2344ZM144.997 26.1406V20.4922C144.997 20.0859 144.93 19.7383 144.797 19.4492C144.665 19.1523 144.457 18.9219 144.176 18.7578C143.903 18.5938 143.547 18.5117 143.11 18.5117C142.735 18.5117 142.411 18.5781 142.137 18.7109C141.864 18.8359 141.653 19.0195 141.504 19.2617C141.356 19.4961 141.282 19.7734 141.282 20.0938H137.907C137.907 19.5547 138.032 19.043 138.282 18.5586C138.532 18.0742 138.895 17.6484 139.372 17.2812C139.848 16.9062 140.415 16.6133 141.071 16.4023C141.735 16.1914 142.477 16.0859 143.297 16.0859C144.282 16.0859 145.157 16.25 145.922 16.5781C146.688 16.9062 147.29 17.3984 147.727 18.0547C148.172 18.7109 148.395 19.5312 148.395 20.5156V25.9414C148.395 26.6367 148.438 27.207 148.524 27.6523C148.61 28.0898 148.735 28.4727 148.899 28.8008V29H145.489C145.325 28.6562 145.2 28.2266 145.114 27.7109C145.036 27.1875 144.997 26.6641 144.997 26.1406ZM145.442 21.2773L145.465 23.1875H143.579C143.133 23.1875 142.747 23.2383 142.418 23.3398C142.09 23.4414 141.821 23.5859 141.61 23.7734C141.399 23.9531 141.243 24.1641 141.141 24.4062C141.047 24.6484 141 24.9141 141 25.2031C141 25.4922 141.067 25.7539 141.2 25.9883C141.332 26.2148 141.524 26.3945 141.774 26.5273C142.024 26.6523 142.317 26.7148 142.653 26.7148C143.161 26.7148 143.602 26.6133 143.977 26.4102C144.352 26.207 144.641 25.957 144.844 25.6602C145.055 25.3633 145.165 25.082 145.172 24.8164L146.063 26.2461C145.938 26.5664 145.766 26.8984 145.547 27.2422C145.336 27.5859 145.067 27.9102 144.739 28.2148C144.411 28.5117 144.016 28.7578 143.555 28.9531C143.094 29.1406 142.547 29.2344 141.915 29.2344C141.11 29.2344 140.379 29.0742 139.723 28.7539C139.075 28.4258 138.559 27.9766 138.176 27.4062C137.801 26.8281 137.614 26.1719 137.614 25.4375C137.614 24.7734 137.739 24.1836 137.989 23.668C138.239 23.1523 138.606 22.7188 139.09 22.3672C139.582 22.0078 140.196 21.7383 140.93 21.5586C141.665 21.3711 142.516 21.2773 143.485 21.2773H145.442ZM156.292 19.0859V29H152.917V16.3203H156.092L156.292 19.0859ZM160.112 16.2383L160.053 19.3672C159.889 19.3438 159.69 19.3242 159.456 19.3086C159.229 19.2852 159.022 19.2734 158.835 19.2734C158.358 19.2734 157.944 19.3359 157.592 19.4609C157.249 19.5781 156.96 19.7539 156.725 19.9883C156.499 20.2227 156.327 20.5078 156.21 20.8438C156.1 21.1797 156.038 21.5625 156.022 21.9922L155.342 21.7812C155.342 20.9609 155.424 20.207 155.588 19.5195C155.753 18.8242 155.991 18.2188 156.303 17.7031C156.624 17.1875 157.014 16.7891 157.475 16.5078C157.936 16.2266 158.463 16.0859 159.057 16.0859C159.245 16.0859 159.436 16.1016 159.631 16.1328C159.827 16.1562 159.987 16.1914 160.112 16.2383ZM168.63 26.5977C169.044 26.5977 169.411 26.5195 169.731 26.3633C170.051 26.1992 170.301 25.9727 170.481 25.6836C170.669 25.3867 170.766 25.0391 170.774 24.6406H173.95C173.942 25.5312 173.704 26.3242 173.235 27.0195C172.766 27.707 172.137 28.25 171.348 28.6484C170.559 29.0391 169.676 29.2344 168.7 29.2344C167.715 29.2344 166.856 29.0703 166.122 28.7422C165.395 28.4141 164.79 27.9609 164.305 27.3828C163.821 26.7969 163.458 26.1172 163.215 25.3438C162.973 24.5625 162.852 23.7266 162.852 22.8359V22.4961C162.852 21.5977 162.973 20.7617 163.215 19.9883C163.458 19.207 163.821 18.5273 164.305 17.9492C164.79 17.3633 165.395 16.9062 166.122 16.5781C166.848 16.25 167.7 16.0859 168.676 16.0859C169.715 16.0859 170.626 16.2852 171.407 16.6836C172.196 17.082 172.813 17.6523 173.258 18.3945C173.712 19.1289 173.942 20 173.95 21.0078H170.774C170.766 20.5859 170.676 20.2031 170.505 19.8594C170.34 19.5156 170.098 19.2422 169.778 19.0391C169.465 18.8281 169.079 18.7227 168.618 18.7227C168.126 18.7227 167.723 18.8281 167.411 19.0391C167.098 19.2422 166.856 19.5234 166.684 19.8828C166.512 20.2344 166.391 20.6367 166.321 21.0898C166.258 21.5352 166.227 22.0039 166.227 22.4961V22.8359C166.227 23.3281 166.258 23.8008 166.321 24.2539C166.383 24.707 166.501 25.1094 166.673 25.4609C166.852 25.8125 167.098 26.0898 167.411 26.293C167.723 26.4961 168.13 26.5977 168.63 26.5977ZM181.12 11V29H177.745V11H181.12ZM180.639 22.2148H179.714C179.721 21.332 179.839 20.5195 180.065 19.7773C180.292 19.0273 180.616 18.3789 181.038 17.832C181.46 17.2773 181.964 16.8477 182.55 16.543C183.143 16.2383 183.8 16.0859 184.518 16.0859C185.143 16.0859 185.71 16.1758 186.217 16.3555C186.733 16.5273 187.175 16.8086 187.542 17.1992C187.917 17.582 188.206 18.0859 188.409 18.7109C188.612 19.3359 188.714 20.0938 188.714 20.9844V29H185.315V20.9609C185.315 20.3984 185.233 19.957 185.069 19.6367C184.913 19.3086 184.682 19.0781 184.378 18.9453C184.081 18.8047 183.714 18.7344 183.276 18.7344C182.792 18.7344 182.378 18.8242 182.034 19.0039C181.698 19.1836 181.428 19.4336 181.225 19.7539C181.022 20.0664 180.874 20.4336 180.78 20.8555C180.686 21.2773 180.639 21.7305 180.639 22.2148ZM199.036 29.2344C198.052 29.2344 197.169 29.0781 196.387 28.7656C195.606 28.4453 194.942 28.0039 194.395 27.4414C193.856 26.8789 193.442 26.2266 193.153 25.4844C192.864 24.7344 192.72 23.9375 192.72 23.0938V22.625C192.72 21.6641 192.856 20.7852 193.13 19.9883C193.403 19.1914 193.794 18.5 194.302 17.9141C194.817 17.3281 195.442 16.8789 196.177 16.5664C196.911 16.2461 197.739 16.0859 198.661 16.0859C199.559 16.0859 200.356 16.2344 201.052 16.5312C201.747 16.8281 202.329 17.25 202.798 17.7969C203.274 18.3438 203.634 19 203.876 19.7656C204.118 20.5234 204.239 21.3672 204.239 22.2969V23.7031H194.161V21.4531H200.923V21.1953C200.923 20.7266 200.837 20.3086 200.665 19.9414C200.501 19.5664 200.251 19.2695 199.915 19.0508C199.579 18.832 199.149 18.7227 198.626 18.7227C198.18 18.7227 197.798 18.8203 197.477 19.0156C197.157 19.2109 196.895 19.4844 196.692 19.8359C196.497 20.1875 196.348 20.6016 196.247 21.0781C196.153 21.5469 196.106 22.0625 196.106 22.625V23.0938C196.106 23.6016 196.177 24.0703 196.317 24.5C196.466 24.9297 196.673 25.3008 196.938 25.6133C197.212 25.9258 197.54 26.168 197.923 26.3398C198.313 26.5117 198.755 26.5977 199.247 26.5977C199.856 26.5977 200.423 26.4805 200.946 26.2461C201.477 26.0039 201.934 25.6406 202.317 25.1562L203.958 26.9375C203.692 27.3203 203.329 27.6875 202.868 28.0391C202.415 28.3906 201.868 28.6797 201.227 28.9062C200.587 29.125 199.856 29.2344 199.036 29.2344ZM211.456 19.0859V29H208.081V16.3203H211.257L211.456 19.0859ZM215.276 16.2383L215.218 19.3672C215.054 19.3438 214.854 19.3242 214.62 19.3086C214.393 19.2852 214.186 19.2734 213.999 19.2734C213.522 19.2734 213.108 19.3359 212.757 19.4609C212.413 19.5781 212.124 19.7539 211.89 19.9883C211.663 20.2227 211.491 20.5078 211.374 20.8438C211.265 21.1797 211.202 21.5625 211.186 21.9922L210.507 21.7812C210.507 20.9609 210.589 20.207 210.753 19.5195C210.917 18.8242 211.155 18.2188 211.468 17.7031C211.788 17.1875 212.179 16.7891 212.64 16.5078C213.1 16.2266 213.628 16.0859 214.222 16.0859C214.409 16.0859 214.6 16.1016 214.796 16.1328C214.991 16.1562 215.151 16.1914 215.276 16.2383Z" fill="#32C112"/>
</svg>
